# AST/ASF file generated using VICON BodyLanguage
# -----------------------------------------------
:version 1.10
:name VICON
:units
  mass 1.0
  length 0.45
  angle deg
:documentation
   .ast/.asf automatically generated from VICON data using
   VICON BodyBuilder and BodyLanguage model FoxedUp or BRILLIANT.MOD
:root
   order TX TY TZ RX RY RZ
   axis XYZ
   position 0 0 0  
   orientation 0 0 0 
:bonedata
  begin
     id 1 
     name lhipjoint
     direction 0.653368 -0.678499 0.335782 
     length 2.51848 
     axis 0 0 0  XYZ
  end
  begin
     id 2 
     name lfemur
     direction 0.34202 -0.939693 0  
     length 6.57749  
     axis 0 0 20  XYZ
    dof rx ry rz
    limits (-160.0 20.0)
           (-70.0 70.0)
           (-60.0 70.0)
  end
  begin
     id 3 
     name ltibia
     direction 0.34202 -0.939693 0   
     length 7.94618   
     axis 0 0 20   XYZ
    dof rx
    limits (-10.0 170.0)
  end
  begin
     id 4 
     name lfoot
     direction 0.0811271 -0.222895 0.971461   
     length 2.31339   
     axis -90 7.62852e-016 20   XYZ
    dof rx rz
    limits (-45.0 90.0)
           (-70.0 20.0)
  end
  begin
     id 5 
     name ltoes
     direction 1.53568e-011 -4.21885e-011 1   
     length 1.15935   
     axis -90 7.62852e-016 20   XYZ
    dof rx
    limits (-90.0 20.0)
  end
  begin
     id 6 
     name rhipjoint
     direction -0.640058 -0.688614 0.340788   
     length 2.48149  
     axis 0 0 0  XYZ 
  end
  begin
     id 7 
     name rfemur
     direction -0.34202 -0.939693 0   
     length 6.57875   
     axis 0 0 -20   XYZ
    dof rx ry rz
    limits (-160.0 20.0)
           (-70.0 70.0)
           (-70.0 60.0)
  end
  begin
     id 8 
     name rtibia
     direction -0.34202 -0.939693 0   
     length 7.977   
     axis 0 0 -20   XYZ
    dof rx
    limits (-10.0 170.0)
 end
 begin
     id 9 
     name rfoot
     direction -0.0979793 -0.269196 0.958089   
     length 2.19857  
     axis -90 -7.62852e-016 -20   XYZ
    dof rx rz
    limits (-45.0 90.0)
           (-20.0 70.0)
  end
  begin
     id 10 
     name rtoes
     direction -1.53556e-011 -4.21868e-011 1   
     length 1.09838   
     axis -90 -7.62852e-016 -20   XYZ
    dof rx
    limits (-90.0 20.0)
  end
  begin
     id 11 
     name lowerback
     direction 0.0149039 0.998517 -0.0523597   
     length 2.10809   
     axis 0 0 0   XYZ
    dof rx ry rz
    limits (-20.0 45.0)
           (-30.0 30.0)
           (-30.0 30.0)
  end
  begin
     id 12 
     name upperback
     direction -0.00882659 0.999418 -0.0329624   
     length 2.1102   
     axis 0 0 0   XYZ
    dof rx ry rz
    limits (-20.0 45.0)
           (-30.0 30.0)
           (-30.0 30.0)
  end
  begin
     id 13 
     name thorax
     direction -0.0165585 0.999826 -0.0085833   
     length 2.11039   
     axis 0 0 0   XYZ
    dof rx ry rz
    limits (-20.0 45.0)
           (-30.0 30.0)
           (-30.0 30.0)
  end
  begin
     id 14 
     name lowerneck
     direction -0.0130877 0.999911 0.00260353   
     length 1.73253   
     axis 0 0 0   XYZ
    dof rx ry rz
    limits (-20.0 45.0)
           (-30.0 30.0)
           (-30.0 30.0)
  end
  begin
     id 15 
     name upperneck
     direction -0.0348454 0.928205 -0.370435   
     length 1.66692   
     axis 0 0 0   XYZ
    dof rx ry rz
    limits (-20.0 45.0)
           (-30.0 30.0)
           (-30.0 30.0)
  end
  begin
     id 16
     name head
     direction -0.00807754 0.992494 -0.122026  
     length 1.72765  
     axis 0 0 0   XYZ
    dof rx ry rz
    limits (-20.0 45.0)
           (-30.0 30.0)
           (-30.0 30.0)
  end
  begin
     id 17 
     name lclavicle
     direction 0.987582 0.144023 0.0627671  
     length 3.49235  
     axis 0 0 0   XYZ
    dof ry rz
    limits (-20.0 10.0)
           (0.0 20.0)
  end
  begin
     id 18 
     name lhumerus
     direction 1 -4.48958e-011 -1.45183e-018   
     length 5.41917   
     axis 180 -30 -90   XYZ
    dof rx ry rz
    limits (-60.0 90.0)
           (-90.0 90.0)
           (-90.0 90.0)
  end
  begin
     id 19
     name lradius
     direction 1 -4.48999e-011 5.75106e-027   
     length 2.44373   
     axis 180 -30 -90   XYZ
    dof rx
    limits (-10.0 170.0)
  end
  begin
     id 20
     name lwrist
     direction 1 -4.48987e-011 1.53461e-026   
     length 1.22186   
     axis -1.09697e-014 90 90   XYZ
    dof ry
    limits (-180.0 0.0)
 end
  begin
     id 21 
     name lhand
     direction 1 -4.48881e-011 3.06923e-026   
     length 0.727502   
     axis -1.95843e-014 90 90   XYZ
    dof rx rz
    limits (-90.0 90.0)
           (-45.0 45.0)
  end
  begin
     id 22 
     name lfingers
     direction 1 -4.48907e-011 6.13845e-026   
     length 0.586531   
     axis -3.91686e-014 90 90   XYZ
    dof rx
    limits (0.0 90.0)
  end
  begin
     id 23
     name lthumb
     direction 0.707107 -6.3487e-011 0.707107   
     length 0.842145   
     axis -90 45 2.85299e-015   XYZ
    dof rx rz
    limits (-45.0 45.0)
           (-45.0 45.0)
  end
  begin
     id 24 
     name rclavicle
     direction -0.980998 0.169556 0.0943023   
     length 3.29272  
     axis 0 0 0   XYZ 
    dof ry rz
    limits (-10.0 20.0)
           (-20.0 0.0)
  end
  begin
     id 25 
     name rhumerus
     direction -1 -1.83355e-005 2.45537e-005  
     length 5.58976   
     axis 180 30 90   XYZ
    dof rx ry rz
    limits (-90.0 60.0)
           (-90.0 90.0)
           (-90.0 90.0)
  end
  begin
     id 26 
     name rradius
     direction -1 -4.48967e-011 5.97228e-027   
     length 2.4806   
     axis 180 30 90   XYZ
    dof rx
    limits (-10.0 170.0)
  end
  begin
     id 27 
     name rwrist
     direction -1 -4.48963e-011 1.53461e-026   
     length 1.2403   
     axis -1.09697e-014 -90 -90   XYZ
    dof ry
    limits (-180.0 0.0)
  end
  begin
     id 28
     name rhand
     direction -1 -4.48881e-011 3.06923e-026   
     length 0.816009   
     axis -1.95843e-014 -90 -90   XYZ
    dof rx rz
    limits (-90.0 90.0)
           (-45.0 45.0)
  end
  begin
     id 29
     name rfingers
     direction -1 -4.49018e-011 6.13845e-026   
     length 0.657887   
     axis -3.91686e-014 -90 -90   XYZ
    dof rx
    limits (0.0 90.0)
  end
  begin
     id 30
     name rthumb
     direction -0.707107 -6.34872e-011 0.707107   
     length 0.944599   
     axis -90 -45 -2.85299e-015   XYZ
    dof rx rz
    limits (-45.0 45.0)
           (-45.0 45.0)
  end
:hierarchy
  begin
    root lhipjoint rhipjoint lowerback
    lhipjoint lfemur
    lfemur ltibia
    ltibia lfoot
    lfoot ltoes
    rhipjoint rfemur
    rfemur rtibia
    rtibia rfoot
    rfoot rtoes
    lowerback upperback
    upperback thorax
    thorax lowerneck lclavicle rclavicle
    lowerneck upperneck
    upperneck head
    lclavicle lhumerus
    lhumerus lradius
    lradius lwrist
    lwrist lhand lthumb
    lhand lfingers
    rclavicle rhumerus
    rhumerus rradius
    rradius rwrist
    rwrist rhand rthumb
    rhand rfingers
  end

#!OML:ASF F:\VICON\USERDATA\INSTALL\rory3\rory3.ASF
:FULLY-SPECIFIED
:DEGREES
72
root 0.543602 16.306 -13.7631 31.8829 -0.725235 -1.60799
lowerback -15.2627 1.27896 -1.07883
upperback -7.46105 1.78122 3.15081
thorax 0.510438 0.986555 4.18875
lowerneck -10.3634 -2.25813 2.17657
upperneck 43.32 -3.93347 -0.696648
head 17.7174 -1.29153 -1.38034
rclavicle -4.37326e-015 6.36111e-015
rhumerus -52.5095 11.0769 -86.8586
rradius 20.2201
rwrist -14.0266
rhand 21.9059 7.27743
rfingers 7.12502
rthumb 46.3062 -15.6885
lclavicle -4.37326e-015 6.36111e-015
lhumerus -53.2141 -7.43762 91.0027
lradius 47.0463
lwrist -0.887383
lhand 9.23491 15.9722
lfingers 7.12502
lthumb 34.4003 42.6662
rfemur -24.3582 -6.28102 33.1115
rtibia 43.7575
rfoot 18.5969 -24.8149
rtoes 17.2979
lfemur -54.7439 7.33359 -37.577
ltibia 40.5518
lfoot -38.3069 26.1761
ltoes 8.35875
73
root 0.543183 16.3049 -13.7572 31.8921 -0.579373 -1.6737
lowerback -15.46 1.33071 -0.996781
upperback -7.44841 1.83859 3.09948
thorax 0.628169 1.01089 4.10371
lowerneck -10.4292 -2.32469 2.38035
upperneck 43.2974 -4.06743 -0.762284
head 17.7099 -1.32031 -1.47067
rclavicle 7.95139e-016 2.38542e-015
rhumerus -52.3857 10.9579 -86.8752
rradius 20.0577
rwrist -13.9003
rhand 21.6369 7.58095
rfingers 7.12502
rthumb 46.0568 -15.4899
lclavicle 7.95139e-016 2.38542e-015
lhumerus -52.9841 -6.99045 90.5382
lradius 47.0431
lwrist -0.648218
lhand 8.58865 15.786
lfingers 7.12502
lthumb 33.7865 42.6169
rfemur -24.3805 -6.32915 33.2565
rtibia 43.7489
rfoot 18.7777 -24.974
rtoes 17.3432
lfemur -54.7248 7.25936 -37.4442
ltibia 40.5778
lfoot -38.3642 26.0933
ltoes 8.3252
74
root 0.544324 16.3038 -13.7497 31.871 -0.447079 -1.72912
lowerback -15.4875 1.37562 -0.929906
upperback -7.58773 1.89337 3.06772
thorax 0.494252 1.04029 4.03877
lowerneck -10.147 -2.37864 2.60906
upperneck 43.2999 -4.14919 -0.887457
head 17.6225 -1.33449 -1.5756
rclavicle -3.65764e-014 -1.43125e-014
rhumerus -52.5556 10.6643 -86.706
rradius 19.8956
rwrist -13.5034
rhand 21.1331 8.07563
rfingers 7.12502
rthumb 45.5892 -15.188
lclavicle -3.65764e-014 -1.43125e-014
lhumerus -52.9157 -6.47647 90.0946
lradius 47.0243
lwrist -0.492629
lhand 8.20971 15.8755
lfingers 7.12502
lthumb 33.4264 42.7848
rfemur -24.376 -6.42565 33.3734
rtibia 43.7104
rfoot 19.1819 -24.83
rtoes 16.7247
lfemur -54.6721 7.26416 -37.369
ltibia 40.6241
lfoot -38.5405 25.7935
ltoes 8.85194
75
root 0.547808 16.304 -13.7418 31.7953 -0.306318 -1.70704
lowerback -15.4823 1.38534 -0.874841
upperback -7.63622 1.9015 3.01501
thorax 0.443678 1.04342 3.95182
lowerneck -10.0945 -2.39955 2.83281
upperneck 43.3062 -4.19772 -0.992808
head 17.6001 -1.33159 -1.67094
rclavicle -1.07344e-014 7.15625e-015
rhumerus -52.5413 10.3353 -86.4505
rradius 19.9246
rwrist -13.2168
rhand 21.071 7.96428
rfingers 7.12502
rthumb 45.5314 -15.3228
lclavicle -1.07344e-014 7.15625e-015
lhumerus -52.6457 -5.78001 89.5309
lradius 46.971
lwrist -0.55573
lhand 8.23748 15.8712
lfingers 7.12502
lthumb 33.4528 42.7748
rfemur -24.2887 -6.5726 33.3951
rtibia 43.6722
rfoot 19.302 -24.9795
rtoes 17.1915
lfemur -54.5584 7.29205 -37.3853
ltibia 40.6529
lfoot -38.5647 25.6157
ltoes 9.15184
76
root 0.547384 16.3036 -13.7346 31.6607 -0.156552 -1.71839
lowerback -15.4169 1.41954 -0.840719
upperback -7.66749 1.94532 2.96432
thorax 0.376253 1.06521 3.88247
lowerneck -10.2588 -2.43983 3.00719
upperneck 43.4844 -4.29427 -1.06205
head 17.7396 -1.34287 -1.75935
rclavicle 2.46493e-014 4.29375e-014
rhumerus -52.4474 9.80043 -85.9783
rradius 20.1778
rwrist -12.8643
rhand 21.8168 7.00582
rfingers 7.12502
rthumb 46.2236 -15.995
lclavicle 2.46493e-014 4.29375e-014
lhumerus -52.4762 -5.13728 88.9547
lradius 47.1003
lwrist -0.368857
lhand 8.09739 16.0177
lfingers 7.12502
lthumb 33.3196 42.95
rfemur -24.1312 -6.60304 33.4787
rtibia 43.6366
rfoot 19.239 -25.0581
rtoes 16.9458
lfemur -54.3571 7.11549 -37.1873
ltibia 40.6736
lfoot -38.7913 25.5238
ltoes 9.45256
77
root 0.546367 16.3025 -13.7255 31.5707 -0.105463 -1.67954
lowerback -15.4256 1.48416 -0.888518
upperback -7.70926 2.04107 2.86037
thorax 0.332057 1.11422 3.81365
lowerneck -10.4109 -2.5016 3.13304
upperneck 43.6526 -4.44221 -1.05388
head 17.8743 -1.37218 -1.81166
rclavicle -4.57205e-015 -7.95139e-015
rhumerus -52.4237 9.50337 -85.8579
rradius 20.526
rwrist -12.6897
rhand 22.2986 5.86493
rfingers 7.12502
rthumb 46.6701 -16.9453
lclavicle -4.57205e-015 -7.95139e-015
lhumerus -52.2598 -4.67554 88.4352
lradius 47.0659
lwrist 0.171206
lhand 7.70372 16.1657
lfingers 7.12502
lthumb 32.9453 43.1775
rfemur -24.0214 -6.64372 33.4592
rtibia 43.6038
rfoot 19.2784 -25.016
rtoes 16.359
lfemur -54.2137 7.06362 -37.1695
ltibia 40.6786
lfoot -38.7944 25.6247
ltoes 9.19404
78
root 0.549704 16.3015 -13.7164 31.5491 -0.0791757 -1.71352
lowerback -15.6039 1.52165 -0.871589
upperback -7.64458 2.08574 2.85788
thorax 0.49195 1.13344 3.81634
lowerneck -10.6332 -2.55305 3.06339
upperneck 43.7208 -4.52777 -1.02422
head 17.9762 -1.40859 -1.80797
rclavicle 3.01159e-014 3.49861e-014
rhumerus -52.1328 9.64869 -85.8945
rradius 20.6695
rwrist -12.6474
rhand 22.2329 4.82632
rfingers 7.12502
rthumb 46.6092 -18.0102
lclavicle 3.01159e-014 3.49861e-014
lhumerus -51.7999 -3.8769 87.8936
lradius 46.8206
lwrist 0.483313
lhand 7.27141 15.9584
lfingers 7.12502
lthumb 32.534 43.0557
rfemur -23.9465 -6.74268 33.4692
rtibia 43.5668
rfoot 19.7686 -24.7637
rtoes 15.7045
lfemur -54.1946 7.1708 -37.2035
ltibia 40.6856
lfoot -38.5949 25.8063
ltoes 8.55466
79
root 0.550872 16.3004 -13.709 31.5287 -0.0416824 -1.78017
lowerback -15.7175 1.53176 -0.842531
upperback -7.66785 2.09429 2.87745
thorax 0.526549 1.13731 3.82579
lowerneck -10.7727 -2.54825 3.16584
upperneck 43.9286 -4.51987 -1.13546
head 18.1333 -1.39417 -1.88733
rclavicle -5.66536e-015 -1.43125e-014
rhumerus -52.0238 9.89785 -86.0468
rradius 20.4472
rwrist -12.5062
rhand 21.9028 4.62432
rfingers 7.12502
rthumb 46.3034 -18.3428
lclavicle -5.66536e-015 -1.43125e-014
lhumerus -51.607 -3.01804 87.3051
lradius 47.0173
lwrist 0.863644
lhand 7.10202 15.9588
lfingers 7.12502
lthumb 32.3728 43.0893
rfemur -23.8603 -6.76018 33.5201
rtibia 43.5185
rfoot 20.0283 -24.7015
rtoes 15.9454
lfemur -54.1561 7.05406 -37.0316
ltibia 40.7036
lfoot -38.6243 25.9882
ltoes 8.58216
80
root 0.552264 16.3005 -13.7016 31.4765 0.0297891 -1.77524
lowerback -15.7998 1.5814 -0.814975
upperback -7.78423 2.16023 2.79825
thorax 0.446044 1.17104 3.73739
lowerneck -10.5776 -2.5914 3.3962
upperneck 43.9875 -4.59368 -1.25359
head 18.101 -1.40062 -1.99217
rclavicle -7.15625e-015 -1.66979e-014
rhumerus -52.1233 9.67017 -85.9964
rradius 20.1828
rwrist -12.1277
rhand 21.6072 4.73801
rfingers 7.12502
rthumb 46.0293 -18.3443
lclavicle -7.15625e-015 -1.66979e-014
lhumerus -51.6569 -2.4316 86.7713
lradius 47.3026
lwrist 1.40823
lhand 6.78237 15.9955
lfingers 7.12502
lthumb 32.0685 43.1877
rfemur -23.7657 -6.84 33.5205
rtibia 43.4578
rfoot 20.1969 -24.5643
rtoes 15.5212
lfemur -54.1001 7.13577 -37.0676
ltibia 40.7379
lfoot -38.4084 26.1011
ltoes 8.03506
81
root 0.551709 16.3006 -13.6946 31.4333 0.179687 -1.81202
lowerback -16.1862 1.53225 -0.890616
upperback -7.68598 2.09849 2.89291
thorax 0.749963 1.13883 3.88817
lowerneck -10.4525 -2.60356 3.41294
upperneck 43.8455 -4.56546 -1.33735
head 17.9754 -1.40372 -2.02068
rclavicle 1.36167e-014 1.19271e-014
rhumerus -51.901 9.63161 -85.6629
rradius 20.1411
rwrist -11.817
rhand 21.5895 4.91423
rfingers 7.12502
rthumb 46.0128 -18.175
lclavicle 1.36167e-014 1.19271e-014
lhumerus -51.3255 -1.43937 86.2554
lradius 47.2789
lwrist 1.63544
lhand 6.52777 15.8394
lfingers 7.12502
lthumb 31.8261 43.08
rfemur -23.6859 -6.92009 33.6145
rtibia 43.3952
rfoot 20.3495 -24.5275
rtoes 15.3483
lfemur -54.0131 7.14349 -36.9958
ltibia 40.7756
lfoot -38.5463 25.8039
ltoes 8.54037
82
root 0.55155 16.2999 -13.6866 31.4116 0.278136 -1.91671
lowerback -16.3505 1.5133 -0.849594
upperback -7.69101 2.06468 2.95632
thorax 0.831865 1.12106 3.93294
lowerneck -10.613 -2.56305 3.47133
upperneck 43.9747 -4.49353 -1.43141
head 18.0945 -1.37085 -2.0722
rclavicle -1.55052e-014 -4.77083e-015
rhumerus -51.7442 9.61818 -85.4297
rradius 19.9539
rwrist -11.5061
rhand 21.7085 5.65181
rfingers 7.12502
rthumb 46.1232 -17.3913
lclavicle -1.55052e-014 -4.77083e-015
lhumerus -51.0834 -0.538098 85.7618
lradius 47.26
lwrist 1.86132
lhand 6.25037 16.1955
lfingers 7.12502
lthumb 31.5619 43.4884
rfemur -23.6074 -6.96213 33.7533
rtibia 43.3539
rfoot 20.4167 -24.6932
rtoes 16.1632
lfemur -53.9647 7.16779 -36.8626
ltibia 40.7954
lfoot -38.7958 25.4845
ltoes 9.50932
